PathFileType	3	(X/Y/Z)	D:\minhoCalibration\240510\subject2_KPNP\preferred\preferred10.trc
DataRate	CameraRate	NumFrames	NumMarkers	Units	OrigDataRate	OrigDataStartFrame	OrigNumFrames
200.0	200.0	33	10	mm	200.0	322	172	
Frame#	Time	Left_Ankle_Outer1			Left_Ankle_Inner1			Left_Knee_Outer1			Left_Knee_Inner1			Left_Wrist1			Right_Wrist1			Right_Knee_Inner1			Right_Knee_Outer1			Right_Ankle_Inner1			Right_Ankle_Outer1			
		X1	Y1	Z1	X2	Y2	Z2	X3	Y3	Z3	X4	Y4	Z4	X5	Y5	Z5	X6	Y6	Z6	X7	Y7	Z7	X8	Y8	Z8	X9	Y9	Z9	X10	Y10	Z10	
322	1.6	-647.27917	104.68003	-739.57617	-663.02563	115.66917	-686.00311	-432.70319	510.6442	-750.76129	-470.71225	497.50598	-659.01709	-482.91827	980.17749	-835.90631	-675.1322	1102.2415	-569.31085	-765.8454	717.22449	-241.51843	-822.58698	805.27747	-243.35379	-920.4267	656.8208	-632.78229	-990.37817	725.03125	-614.9325
323	1.605	-647.63806	106.24173	-737.4137	-661.7442	117.95449	-683.76025	-430.9765	511.71619	-755.52161	-464.66864	497.39462	-661.99426	-487.5177	979.69757	-839.53857	-667.09979	1107.0602	-565.87231	-744.52222	732.42657	-224.35251	-798.76202	822.50891	-224.23643	-920.05505	672.82623	-606.59509	-986.42828	743.62463	-587.53247
324	1.61	-648.11243	108.4365	-735.63031	-659.6532	120.51569	-681.57178	-428.88983	512.97314	-760.34009	-458.75964	497.97592	-665.02533	-492.85718	978.70758	-842.92676	-659.40033	1111.7107	-562.89917	-721.99646	747.91644	-208.35692	-774.14124	839.69757	-205.62102	-920.47302	688.39392	-578.62799	-982.98816	762.00983	-557.98273
325	1.615	-647.99341	110.34149	-733.25983	-658.20844	123.50065	-677.79266	-427.70844	513.36816	-764.78259	-452.54193	497.88785	-668.38904	-499.56277	977.07605	-845.37457	-652.09949	1116.1721	-560.34827	-698.69666	763.70514	-193.9222	-747.85089	856.70178	-190.1089	-920.4671	704.39417	-550.11414	-979.13684	780.00244	-527.55548
326	1.62	-647.55792	112.37768	-730.80359	-655.97687	124.38035	-677.14008	-426.57736	514.09509	-769.13544	-446.13327	498.2106	-672.06604	-506.28317	975.23914	-847.82355	-645.0174	1120.5299	-558.47864	-674.47754	779.64728	-180.97751	-720.73065	875.14612	-174.47963	-918.63092	720.18549	-522.0777	-974.58099	797.09619	-497.05966
327	1.625	-646.69324	114.32234	-728.33112	-653.63525	127.60686	-673.1272	-425.50577	515.43488	-773.30518	-439.88269	498.64703	-675.95288	-513.30627	973.29895	-849.70325	-638.29956	1124.8137	-556.63171	-649.67493	795.55872	-169.67354	-691.94427	892.03821	-163.84039	-918.45496	734.50458	-492.18317	-969.67529	814.2348	-465.14441
328	1.63	-645.39728	115.74731	-725.58032	-650.4632	129.00125	-672.12207	-425.7215	515.95111	-776.84039	-433.93021	499.21237	-679.92377	-520.81714	971.12115	-851.1969	-631.70239	1128.5121	-555.09296	-624.36908	811.43866	-160.21907	-662.7998	909.36267	-154.26616	-918.3808	749.38226	-459.77713	-964.61255	831.47687	-430.60843
329	1.635	-644.03571	117.78515	-723.93317	-648.57629	132.61725	-666.91357	-426.19891	516.84869	-779.85913	-428.66714	499.9447	-683.66144	-528.23877	969.12616	-852.26361	-625.97083	1131.8956	-554.10474	-598.92236	826.9342	-152.44321	-633.37701	926.10138	-147.06332	-916.36658	762.99286	-427.23303	-958.42505	847.31586	-397.55872
330	1.64	-642.50665	119.43211	-722.24182	-645.66748	134.16943	-665.94244	-426.46591	518.30206	-782.55225	-424.23395	500.89453	-686.99426	-536.70233	966.40411	-852.39661	-620.05188	1135.28	-553.23401	-573.4278	842.30212	-146.67545	-604.43158	941.81927	-142.15726	-913.86371	776.74683	-392.66016	-951.46222	863.09906	-362.27036
331	1.645	-640.85449	120.66612	-720.53595	-643.15814	135.60023	-665.1604	-427.63312	519.31543	-784.2782	-420.83539	502.09253	-689.61353	-545.04437	963.63989	-852.31116	-613.89911	1138.1976	-552.46936	-547.8349	857.42725	-143.12965	-575.52631	956.88586	-139.72229	-910.44031	790.63397	-355.40436	-943.3681	878.92773	-324.62714
332	1.65	-639.47076	122.05355	-719.4621	-640.98224	135.67422	-665.9801	-428.39389	520.54144	-785.63593	-418.61874	503.47913	-691.26196	-553.54871	960.57123	-851.43695	-607.67017	1140.8047	-551.60828	-522.91754	871.85907	-141.12822	-547.08398	971.16534	-139.82918	-905.54199	804.05066	-315.12839	-933.74078	894.44305	-285.24011
333	1.655	-638.44269	123.33193	-718.77356	-639.3028	137.10452	-664.89465	-429.39206	521.69067	-786.25122	-417.54672	505.04721	-691.91949	-561.99713	957.53772	-850.12085	-602.33069	1143.1696	-551.29529	-498.83423	885.57025	-140.64299	-519.80444	983.96783	-142.12355	-897.85114	817.37189	-273.76505	-921.64282	909.76312	-245.618
334	1.66	-637.60931	124.55495	-718.57672	-637.96338	138.02563	-664.45941	-430.13669	522.87305	-786.40814	-417.32724	506.75183	-691.88141	-570.34784	954.53571	-848.32428	-597.73938	1145.1362	-551.30096	-475.66992	898.39056	-141.88148	-494.5621	995.81189	-145.58698	-887.55292	831.63751	-230.78456	-907.07294	925.63666	-203.97223
335	1.665	-637.10272	125.26443	-718.04773	-637.55792	139.98343	-661.59137	-430.9595	524.10437	-785.84155	-418.12845	508.25024	-691.02332	-578.48682	951.61444	-846.11194	-592.8606	1146.9581	-551.27747	-453.85391	910.17261	-144.74976	-470.54169	1006.449	-151.25008	-874.26697	845.20972	-184.53343	-889.83057	940.94067	-161.13406
336	1.67	-636.82159	125.32388	-717.11188	-637.41406	140.44479	-660.62073	-431.7334	525.41223	-784.93585	-419.72095	509.65875	-689.65619	-586.31049	948.86194	-843.54785	-587.82562	1148.6229	-551.30548	-433.43863	920.77094	-149.2932	-448.66458	1015.3176	-158.3129	-857.18018	859.09174	-137.84402	-869.38007	956.15039	-117.78387
337	1.675	-636.90485	125.30711	-716.57428	-637.31256	139.51431	-661.47937	-432.95645	526.63733	-783.40338	-422.07706	510.69247	-687.75354	-593.82709	946.14655	-840.64941	-583.65204	1149.9788	-551.55774	-415.53329	929.67554	-153.71864	-429.73248	1022.8771	-165.8098	-836.22046	873.89117	-89.37719	-845.13098	972.10809	-73.490517
338	1.68	-637.43719	125.28452	-716.15344	-637.71967	139.10712	-660.72266	-434.3663	527.96118	-781.70441	-424.97711	511.51788	-685.52069	-600.76056	943.74487	-837.62433	-579.64996	1151.2502	-551.81653	-399.59448	937.08075	-159.3595	-413.18695	1029.1135	-173.6814	-810.58356	889.10791	-41.596069	-816.86731	988.09265	-29.192347
339	1.685	-638.25934	124.81101	-715.17389	-638.33374	138.95041	-659.099	-436.00018	529.11328	-779.84668	-428.37802	512.11993	-683.07623	-607.09772	941.65692	-834.3855	-576.17554	1152.4558	-551.9668	-386.26541	943.13086	-165.19713	-399.38873	1034.0531	-181.29503	-780.30914	904.09454	5.0740166	-784.22583	1003.5733	14.345615
340	1.69	-639.45331	124.06089	-713.71332	-639.59143	137.5629	-658.24139	-438.27374	530.25122	-777.30176	-432.26523	512.40289	-680.38287	-612.75403	939.95361	-831.08051	-573.0191	1153.6658	-552.34778	-375.87222	947.6723	-170.93962	-388.44568	1037.8265	-188.21405	-745.94592	920.05969	49.95237	-747.18439	1019.8613	56.501995
341	1.695	-641.17676	123.15989	-711.64459	-641.49701	137.14865	-654.80695	-440.41522	531.21252	-775.28326	-436.48401	512.45068	-677.6485	-617.61011	938.67639	-827.81915	-570.13934	1154.7987	-553.16022	-368.26248	951.0509	-176.14627	-380.142	1040.4127	-194.13748	-707.03296	935.96515	92.481163	-705.24603	1035.9169	96.377823
342	1.7	-643.13007	122.26424	-708.77032	-642.82379	135.32739	-653.71436	-443.3826	531.51111	-772.94781	-440.82541	512.30597	-674.88379	-621.57281	937.81702	-824.76355	-567.70618	1156.2283	-553.56708	-363.65338	953.56396	-180.49458	-374.31857	1041.8853	-198.86058	-663.91302	951.57172	132.03638	-658.89349	1051.5079	133.55783
343	1.705	-645.32074	121.68338	-705.66406	-644.0174	135.28876	-650.05072	-446.89417	531.45374	-770.55402	-445.18945	512.06903	-672.20764	-624.61566	937.42493	-821.87299	-566.88776	1157.5072	-553.12158	-362.53503	955.58545	-184.09639	-371.01764	1042.4971	-202.22978	-617.51483	967.09723	166.98053	-607.97229	1066.7129	165.9839
344	1.71	-647.47784	120.86854	-701.85669	-645.9469	134.96257	-645.7215	-450.59634	531.06824	-768.65985	-449.33783	511.8078	-669.6803	-626.85687	937.42584	-819.23395	-565.67273	1159.1074	-553.33582	-363.84692	956.83948	-186.56708	-370.15085	1042.5007	-204.15872	-563.84094	980.69153	195.29349	-553.1994	1080.8202	192.72137
345	1.715	-650.05487	120.79079	-698.22119	-647.55371	134.49274	-641.83862	-454.00247	530.68353	-767.41388	-453.2218	511.5369	-667.31641	-628.34753	937.84308	-816.716	-565.33026	1160.7416	-552.70605	-367.87985	957.9082	-187.67453	-371.66345	1042.5328	-204.4557	-508.61877	993.86639	219.52286	-495.87488	1092.5188	212.64021
346	1.72	-652.30249	120.72607	-694.5238	-648.16852	133.37613	-639.61682	-458.63904	529.70703	-765.30438	-456.6106	511.32272	-665.26093	-629.05103	938.58368	-814.19916	-565.56085	1162.6654	-551.05646	-374.47104	959.39075	-186.40669	-374.57419	1043.1069	-204.2195	-449.99194	1003.1167	234.33585	-437.88171	1101.209	223.91212
347	1.725	-654.18311	120.56464	-690.52606	-650.23907	134.2426	-633.5459	-461.93558	529.36462	-764.42615	-459.42508	511.17169	-663.45673	-629.03613	939.61218	-811.42682	-566.1701	1164.6307	-549.10315	-379.66226	961.41724	-183.32202	-378.50626	1046.0681	-203.08595	-389.66315	1008.1907	239.50963	-381.15469	1106.0537	227.26266
348	1.73	-655.76587	120.61584	-687.11499	-650.83801	133.50081	-630.96936	-466.18637	528.63806	-762.63678	-461.79031	511.09119	-661.85547	-628.38641	940.96863	-808.28241	-566.98529	1166.774	-546.57056	-382.76727	963.77734	-179.31042	-380.46213	1051.8331	-202.1011	-339.27103	1011.736	234.96233	-333.29013	1105.5175	222.1418
349	1.735	-656.97565	120.74292	-684.30133	-650.99982	131.97273	-630.4989	-470.63361	527.97229	-760.45856	-463.61404	511.09641	-660.26642	-627.20337	942.56848	-804.80042	-568.20117	1169.0409	-543.18988	-381.28915	966.24286	-176.22214	-379.48401	1057.53	-199.89629	-315.53571	1007.4171	225.80058	-308.07336	1102.2185	212.66353
350	1.74	-657.88397	120.93797	-682.07971	-651.83539	132.54506	-627.01276	-474.56091	528.11902	-757.8877	-465.0304	511.26981	-658.50739	-625.83429	944.11945	-800.72363	-569.948	1171.1263	-539.29462	-367.34189	971.53101	-181.40863	-370.55017	1061.8842	-200.03444	-311.98389	1003.8207	224.38614	-305.56604	1099.1868	212.34062
351	1.745	-658.44238	121.22537	-680.75702	-652.13245	132.39883	-625.69623	-477.93332	529.0387	-754.81085	-466.26471	511.53058	-656.20703	-624.59265	945.64392	-796.50165	-571.85492	1172.9579	-535.63135	-350.13492	975.17462	-188.63089	-359.06311	1063.8751	-202.06511	-315.89828	1000.5158	225.1933	-312.29968	1097.5283	214.8916
352	1.75	-658.43127	121.58057	-680.25751	-652.22644	132.9987	-624.43231	-481.01929	530.09778	-751.14355	-466.75375	512.10962	-653.73578	-623.91144	947.23804	-792.56696	-575.08801	1174.3427	-530.39172	-336.86066	977.07904	-194.94743	-347.64288	1063.3937	-203.98376	-321.27505	996.65448	225.76819	-320.84186	1095.7051	216.27179
353	1.755	-657.99567	122.08808	-680.36633	-652.11273	132.33205	-625.7276	-483.07898	531.56641	-747.02991	-467.40247	513.0379	-650.55096	-623.18951	948.53186	-788.37823	-578.32758	1175.3413	-525.05603	-329.51569	980.96588	-198.83954	-337.70615	1062.8506	-205.43527	-325.3215	991.25824	225.48305	-324.08841	1091.4753	215.94278
354	1.76	-657.17719	122.71429	-681.1084	-651.67688	132.9659	-625.85535	-484.4097	533.25079	-742.31696	-468.26605	514.35333	-646.73853	-622.12982	949.83038	-784.52283	-581.76196	1175.8518	-519.51788	-328.39642	983.88483	-198.18567	-329.74377	1062.0385	-206.05585	-325.07242	983.5697	223.82738	-325.05353	1082.8713	217.61673
